<svg width="48" height="49" viewBox="0 0 48 49" fill="none" xmlns="http://www.w3.org/2000/svg">
<path d="M18.18 34.2563L34.2 24.0563L18.18 13.8563V34.2563ZM24 48.0563C20.72 48.0563 17.62 47.4263 14.7 46.1663C11.78 44.9063 9.23 43.1863 7.05 41.0063C4.87 38.8263 3.15 36.2763 1.89 33.3563C0.63 30.4363 0 27.3363 0 24.0563C0 20.7763 0.63 17.6763 1.89 14.7563C3.15 11.8363 4.87 9.28634 7.05 7.10634C9.23 4.92634 11.78 3.20634 14.7 1.94634C17.62 0.686335 20.72 0.0563354 24 0.0563354C27.28 0.0563354 30.38 0.686335 33.3 1.94634C36.22 3.20634 38.77 4.92634 40.95 7.10634C43.13 9.28634 44.85 11.8363 46.11 14.7563C47.37 17.6763 48 20.7763 48 24.0563C48 27.3363 47.37 30.4363 46.11 33.3563C44.85 36.2763 43.13 38.8263 40.95 41.0063C38.77 43.1863 36.22 44.9063 33.3 46.1663C30.38 47.4263 27.28 48.0563 24 48.0563ZM24 44.4563C29.6 44.4563 34.4 42.4563 38.4 38.4563C42.4 34.4563 44.4 29.6563 44.4 24.0563C44.4 18.4563 42.4 13.6563 38.4 9.65634C34.4 5.65634 29.6 3.65634 24 3.65634C18.4 3.65634 13.6 5.65634 9.6 9.65634C5.6 13.6563 3.6 18.4563 3.6 24.0563C3.6 29.6563 5.6 34.4563 9.6 38.4563C13.6 42.4563 18.4 44.4563 24 44.4563Z" fill="#02799D"/>
</svg>
